#N canvas 64 70 635 594 10;
#X obj 11 31 tgl 30 0 run empty run 7 15 0 10 -262144 -1 -1 0 1;
#X floatatom 20 104 10 0 0 1 lat lat -;
#X floatatom 118 104 10 0 0 1 lon lon -;
#N canvas 275 23 1004 584 guts 0;
#X msg 63 228 click;
#X msg 111 228 close;
#X msg 522 385 1e+09;
#X text 565 386 insert after end;
#X obj 46 288 text define -k mytext;
#A set 0 0 0 0 0 0 0 0 0 0 0 0 0 \; count lat long speed altitude accx
accy accz gyrox gyroy gyroz touchx touchy \; 1 0 0 0 0 0 0 0 0 0 0
0 0 \; count lat long speed altitude accx accy accz gyrox gyroy gyroz
touchx touchy \; count lat long speed altitude accx accy accz gyrox
gyroy gyroz touchx touchy \; 0 0 0 0 0 0 0 0 0 0 0 0 0 \; 0 0 0 0 0
0 0 0 0 0 0 0 0 \; count lat long speed altitude accx accy accz gyrox
gyroy gyroz touchx touchy \; count lat long speed altitude accx accy
accz gyrox gyroy gyroz touchx touchy \; count lat long speed altitude
accx accy accz gyrox gyroy gyroz touchx touchy \;;
#X obj 397 445 text insert mytext;
#X msg 210 289 2;
#X msg 219 316 -1;
#X obj 212 378 text delete mytext;
#X obj 523 353 loadbang;
#X obj 215 132 tgl 15 0 empty empty empty 17 7 0 10 -262144 -1 -1 0
1;
#N canvas 0 23 450 300 count 0;
#X obj 66 185 int 1;
#X obj 128 185 + 1;
#X msg 91 140 1;
#X obj 64 137 bng 15 250 50 0 empty empty empty 17 7 0 10 -262144 -1
-1;
#X floatatom 66 213 5 0 0 0 - - -;
#X obj 62 64 inlet;
#X obj 65 243 outlet;
#X obj 115 64 inlet;
#X text 36 21 increment;
#X text 134 29 reset;
#X connect 0 0 1 0;
#X connect 0 0 4 0;
#X connect 1 0 0 1;
#X connect 2 0 0 0;
#X connect 3 0 0 0;
#X connect 4 0 6 0;
#X connect 5 0 3 0;
#X connect 7 0 2 0;
#X restore 216 191 pd count;
#X obj 317 185 bng 15 250 50 0 empty empty empty 17 7 0 10 -262144
-1 -1;
#X obj 416 178 r #loc;
#X obj 416 211 unpack f f f;
#X obj 502 211 unpack f f;
#X obj 502 180 r #speed;
#X text 505 158 speed;
#X msg 47 192 write mytext.txt;
#X obj 576 182 r #altitude;
#X obj 576 211 unpack f f;
#X text 414 157 lat;
#X text 444 156 lon;
#X text 581 162 Altitude;
#N canvas 263 72 516 298 gpsguts 0;
#X obj 34 195 loadbang;
#X obj 36 141 s lat;
#X obj 70 115 s lon;
#X obj 36 17 r #loc;
#X obj 36 50 unpack f f f;
#X obj 318 87 s #pdparty;
#X obj 434 18 r update;
#X msg 225 48 loc \$1;
#X obj 318 18 r updates;
#X msg 318 49 loc updates \$1;
#X msg 34 230 \; updates-in set 1 \; accuracy-in set 1 \; filter-in
set 0;
#X msg 434 50 loc;
#X obj 133 15 r #altitude;
#X obj 133 102 s altitude;
#X obj 133 44 unpack f f;
#X text 34 0 Setup GPS;
#X obj 225 17 r run;
#X connect 0 0 10 0;
#X connect 3 0 4 0;
#X connect 4 0 1 0;
#X connect 4 1 2 0;
#X connect 6 0 11 0;
#X connect 7 0 5 0;
#X connect 8 0 9 0;
#X connect 9 0 5 0;
#X connect 11 0 5 0;
#X connect 12 0 14 0;
#X connect 14 0 13 0;
#X connect 16 0 7 0;
#X restore 24 33 pd gpsguts;
#N canvas 768 134 623 388 accelguts 0;
#X obj 40 58 unpack f f f;
#X obj 74 87 s ay;
#X obj 109 87 s az;
#X obj 40 87 s ax;
#X obj 40 28 r #accelerate;
#X obj 39 164 loadbang;
#N canvas 651 529 253 199 type 0;
#X obj 16 9 inlet;
#X obj 16 133 symbol;
#X obj 16 167 outlet;
#X msg 16 84 fastest;
#X msg 83 84 fast;
#X msg 132 83 normal;
#X msg 191 83 slow;
#X obj 16 38 sel 0 1 2 3;
#X obj 83 162 print;
#X connect 0 0 7 0;
#X connect 1 0 2 0;
#X connect 1 0 8 0;
#X connect 3 0 1 0;
#X connect 4 0 1 0;
#X connect 5 0 1 0;
#X connect 6 0 1 0;
#X connect 7 0 3 0;
#X connect 7 1 4 0;
#X connect 7 2 5 0;
#X connect 7 3 6 0;
#X restore 297 59 pd type;
#X obj 297 27 r speed-out;
#X msg 173 58 accelerate \$1;
#X msg 297 89 accelerate speed \$1;
#X obj 173 123 s #pdparty;
#X obj 173 27 r run;
#X obj 255 170 hradio 54 1 0 4 speed-out speed-in empty 0 -8 0 10 -262144
-1 -1 3;
#X text 256 232 fastest;
#X text 371 232 normal;
#X text 323 232 fast;
#X text 432 232 slow;
#X msg 39 196 \; speed-in set 3;
#X connect 0 0 3 0;
#X connect 0 1 1 0;
#X connect 0 2 2 0;
#X connect 4 0 0 0;
#X connect 5 0 17 0;
#X connect 6 0 9 0;
#X connect 7 0 6 0;
#X connect 8 0 10 0;
#X connect 9 0 10 0;
#X connect 11 0 8 0;
#X restore 93 33 pd accelguts;
#X obj 215 103 r run;
#N canvas 607 222 673 469 gyroguts 0;
#X obj 40 58 unpack f f f;
#X obj 40 28 r #gyro;
#X obj 40 87 s gx;
#X obj 74 87 s gy;
#X obj 109 88 s gz;
#X msg 173 58 gyro \$1;
#X obj 266 97 s #pdparty;
#X obj 382 28 r update;
#X obj 266 222 s #pdparty;
#N canvas 651 529 253 199 type 0;
#X obj 16 9 inlet;
#X obj 16 133 symbol;
#X obj 16 167 outlet;
#X msg 16 84 fastest;
#X msg 83 84 fast;
#X msg 132 83 normal;
#X msg 191 83 slow;
#X obj 16 38 sel 0 1 2 3;
#X connect 0 0 7 0;
#X connect 1 0 2 0;
#X connect 3 0 1 0;
#X connect 4 0 1 0;
#X connect 5 0 1 0;
#X connect 6 0 1 0;
#X connect 7 0 3 0;
#X connect 7 1 4 0;
#X connect 7 2 5 0;
#X connect 7 3 6 0;
#X restore 266 163 pd type;
#X obj 266 131 r speed-out;
#X msg 266 193 gyro speed \$1;
#X obj 266 28 r updates;
#X msg 266 59 gyro updates \$1;
#X msg 382 60 gyro;
#X obj 173 27 r run;
#X obj 22 175 hradio 54 1 0 4 speed-out speed-in empty 0 -8 0 10 -262144
-1 -1 3;
#X text 23 237 fastest;
#X text 138 237 normal;
#X text 90 237 fast;
#X text 199 237 slow;
#X connect 0 0 2 0;
#X connect 0 1 3 0;
#X connect 0 2 4 0;
#X connect 1 0 0 0;
#X connect 5 0 6 0;
#X connect 7 0 14 0;
#X connect 9 0 11 0;
#X connect 10 0 9 0;
#X connect 11 0 8 0;
#X connect 12 0 13 0;
#X connect 13 0 6 0;
#X connect 14 0 6 0;
#X connect 15 0 5 0;
#X restore 174 33 pd gyroguts;
#N canvas 0 23 614 421 timeguts 0;
#X obj 18 88 s #pdparty;
#X text 112 52 request 1 timestamp;
#X obj 18 123 r #time;
#X obj 18 161 unpack f f f f f f f f f f;
#X obj 171 191 s millisecond;
#X obj 154 216 s second;
#X obj 137 242 s minute;
#X obj 120 267 s hour;
#X obj 103 293 s timezone;
#X obj 69 347 s dweek;
#X obj 86 319 s dyear;
#X obj 52 373 s dmonth;
#X obj 35 398 s month;
#X obj 18 424 s year;
#X obj 18 18 r request;
#X msg 18 53 time;
#X obj 88 17 inlet;
#X connect 2 0 3 0;
#X connect 3 0 13 0;
#X connect 3 1 12 0;
#X connect 3 2 11 0;
#X connect 3 3 9 0;
#X connect 3 4 10 0;
#X connect 3 5 8 0;
#X connect 3 6 7 0;
#X connect 3 7 6 0;
#X connect 3 8 5 0;
#X connect 3 9 4 0;
#X connect 14 0 15 0;
#X connect 15 0 0 0;
#X connect 16 0 15 0;
#X restore 26 61 pd timeguts;
#X obj 27 83 bng 30 250 50 0 request empty request_time 32 15 0 15
-262144 -1 -1;
#N canvas 865 59 283 437 touchguts 0;
#X obj 45 319 unpack f f f;
#X obj 45 28 r #touch;
#X obj 114 349 s touch_down_y;
#X obj 79 373 s touch_down_x;
#X obj 45 397 s touch_down_id;
#X obj 76 207 unpack f f f;
#X obj 107 98 unpack f f f;
#X obj 107 176 s touch_up_id;
#X obj 141 152 s touch_up_x;
#X obj 176 128 s touch_up_y;
#X obj 45 63 route down xy up;
#X obj 167 53 print;
#X obj 145 237 s touch_xy_y;
#X obj 110 261 s touch_xy_x;
#X obj 76 285 s touch_xy_id;
#X connect 0 0 4 0;
#X connect 0 1 3 0;
#X connect 0 2 2 0;
#X connect 1 0 10 0;
#X connect 5 0 14 0;
#X connect 5 1 13 0;
#X connect 5 2 12 0;
#X connect 6 0 7 0;
#X connect 6 1 8 0;
#X connect 6 2 9 0;
#X connect 10 0 0 0;
#X connect 10 1 5 0;
#X connect 10 2 6 0;
#X restore 105 61 pd touchguts;
#X text 449 20 latitude \, longitude \, speed;
#X text 449 35 accelerate x \, y \, z;
#X text 450 69 Touch x \, y;
#X text 449 51 gyro x \, y \, z;
#X obj 665 183 r ax;
#X obj 699 183 r ay;
#X obj 734 183 r az;
#X text 667 160 Accelerometer;
#X obj 584 78 r gx;
#X obj 618 78 r gy;
#X obj 653 79 r gz;
#X text 661 223 gyro;
#X text 811 174 Touch;
#X obj 813 201 r touch_xy_y;
#X obj 898 200 r touch_xy_x;
#X obj 317 151 r reset;
#X obj 47 165 r write;
#X obj 216 158 metro 1000;
#X obj 274 113 r mspeed;
#X msg 678 500 list count lat long speed altitude accx accy accz gyrox
gyroy gyroz touchx touchy;
#X msg 393 311 \$1 \$2 \$3 \$4 \$5 \$6 \$7 \$8 \$9 \$10 \$11 \$12 \$13
;
#X obj 397 281 pack 0 0 0 0 0 0 0 0 0 0 0 0 0 0;
#X msg 705 328 list count \$1;
#X text 837 357 lat;
#X text 867 356 lon;
#X msg 706 357 list loc \$2 \$3 \$4 \$5;
#X text 896 356 speed;
#X text 944 358 alt;
#X msg 708 385 list acc \$6 \$7 \$8;
#X msg 711 409 list gyro \$9 \$10 \$11;
#X msg 713 437 list touchxy \$12 \$13;
#X connect 0 0 4 0;
#X connect 1 0 4 0;
#X connect 2 0 5 1;
#X connect 6 0 8 0;
#X connect 7 0 8 0;
#X connect 9 0 2 0;
#X connect 9 0 50 0;
#X connect 10 0 48 0;
#X connect 11 0 52 0;
#X connect 12 0 11 1;
#X connect 12 0 7 0;
#X connect 13 0 14 0;
#X connect 14 0 52 1;
#X connect 14 1 52 2;
#X connect 15 0 52 3;
#X connect 16 0 15 0;
#X connect 18 0 4 0;
#X connect 19 0 20 0;
#X connect 20 0 52 4;
#X connect 26 0 10 0;
#X connect 35 0 52 5;
#X connect 36 0 52 6;
#X connect 37 0 52 7;
#X connect 39 0 52 8;
#X connect 40 0 52 9;
#X connect 41 0 52 10;
#X connect 44 0 52 11;
#X connect 45 0 52 12;
#X connect 46 0 12 0;
#X connect 47 0 18 0;
#X connect 48 0 11 0;
#X connect 49 0 48 1;
#X connect 50 0 5 0;
#X connect 51 0 56 0;
#X connect 51 0 53 0;
#X connect 51 0 59 0;
#X connect 51 0 60 0;
#X connect 51 0 61 0;
#X connect 52 0 51 0;
#X connect 53 0 5 0;
#X connect 56 0 5 0;
#X connect 59 0 5 0;
#X connect 60 0 5 0;
#X connect 61 0 5 0;
#X restore 301 185 pd guts;
#X obj 12 168 tgl 30 0 updates updates-in updates 32 15 0 10 -262144
-1 -1 1 1;
#X obj 57 37 bng 20 250 50 0 write empty write 32 15 0 10 -262144 -1
-1;
#X text 9 5 GPS location & speed;
#X floatatom 117 136 10 0 0 1 m altitude -;
#X obj 12 212 cnv 15 340 80 empty empty accelerate 20 12 0 14 -233017
-66577 0;
#X floatatom 34 257 10 0 0 1 x ax -;
#X floatatom 137 257 10 0 0 1 y ay -;
#X floatatom 242 257 10 0 0 1 z az -;
#X obj 11 300 cnv 15 340 80 empty empty gyro 20 12 0 14 -233017 -66577
0;
#X floatatom 28 341 10 0 0 1 x gx -;
#X floatatom 140 341 10 0 0 1 y gy -;
#X floatatom 249 341 10 0 0 1 z gz -;
#X obj 112 168 bng 30 250 50 0 request empty request_time 32 15 0 15
-262144 -1 -1;
#X obj 129 37 bng 20 250 50 0 reset empty reset 32 15 0 10 -262144
-1 -1;
#X obj 226 36 vsl 20 120 2 5000 0 0 mspeed empty empty 0 -9 0 10 -262144
-1 -1 19 1;
#X obj 317 61 loadbang;
#X floatatom 258 144 10 0 0 1 metro_speed mspeed -;
#X floatatom 15 394 5 0 0 1 x touch_xy_x -;
#X floatatom 66 394 5 0 0 1 y touch_xy_y -;
#X msg 317 88 100;
#X connect 19 0 23 0;
#X connect 23 0 18 0;
